# xmcd
#
# Track frame offsets:
#	150
#	12719
#	25457
#	38772
#	49941
#	63551
#	75957
#	86951
#	95542
#	107169
#	116415
#	125218
#	137499
#	149014
#	163177
#
# Disc length: 2319 seconds
#
# Revision: 0
# Processed by: cddbd v1.5.2PL0 Copyright (c) Steve Scherf et al.
# Submitted via: EasyCDDAExtractor 15.3.0.1
#
DISCID=da090d0f
DTITLE=Various Artist - Country Music is here to Stay
DYEAR=2012
DGENRE=Country
TTITLE0=Ray Price - Invition To The Blues
TTITLE1=The Browns - The Three Bells
TTITLE2=Ray Price - Heartaches By the Numbers
TTITLE3=Stonewall Jackson - Waterloo
TTITLE4=Johnny Cash - Ruby, Don't Take Your Gun to Town
TTITLE5=George Jones - White Lighting
TTITLE6=Faron Young - Country Girl
TTITLE7=Webb Pierce - I Ain't Never
TTITLE8=Johnny Horton - When It's Springtime in Alaska
TTITLE9=Jim Reeves - Billy Bayou
TTITLE10=Jim Reeves - Home
TTITLE11=Wilma Lee and Stoney Cooper - Big Midnight Special
TTITLE12=George Margan - I'm In Love Again
TTITLE13=Simon Crum - Country Music is Here To Stay
TTITLE14=Wilma Lee and Stoney Cooper - Come Walk with Me
EXTD=
EXTT0=
EXTT1=
EXTT2=
EXTT3=
EXTT4=
EXTT5=
EXTT6=
EXTT7=
EXTT8=
EXTT9=
EXTT10=
EXTT11=
EXTT12=
EXTT13=
EXTT14=
PLAYORDER=
